<svg xmlns="http://www.w3.org/2000/svg" viewBox="0 0 177.5 87.94"><title>Puma SE logo - Brandlogos.net</title><path d="M390.87,340.58c-.58.11-1.15,2.16-2.3,3.3-.81.8-1.84.8-2.42,1.71-.23.34-.12,1-.35,1.6-.46,1.25-2.08,1.37-2.08,2.62s1.38,1.71,2.53,2.73c.92.8,1,1.37,2.08,1.71s2.3-.68,3.57-.34c1,.34,2.08.57,2.3,1.6s0,2.51-1.27,2.28a15.68,15.68,0,0,0-4.49-.46c-2.76.34-5.88,1.14-6.11,4.22a3.55,3.55,0,0,0,3.92,3.3c1.38-.23.69-1.94,1.5-2.73,1-1,6.68,3.53,12,3.53a7,7,0,0,0,5.53-2.28c.12-.11.35-.46.58-.46a1.32,1.32,0,0,1,.69.34c4.26,3.42,7.49,10.14,23,10.25a10.78,10.78,0,0,1,6.8,2.85c1.84,1.71,2.88,4.33,3.92,6.95,1.61,4,4.38,7.86,8.64,12.08.23.23,3.69,3,4,3.08,0,0,.35.68.23,1-.12,2.62-.46,10,5.18,10.37,1.38.11,1-.91,1-1.6,0-1.25-.23-2.62.46-3.87.92-1.82-2-2.62-2-6.61.12-3-2.42-2.51-3.69-4.67-.69-1.25-1.38-2.05-1.38-3.65.23-9-2-14.92-3-16.29-.81-1.14-1.61-1.48-.81-2.05,4.72-3.08,5.76-5.93,5.76-5.93,2.53-5.81,4.72-11.16,7.83-13.44a19.34,19.34,0,0,1,3.23-2.16c2.88-1.37,4.38-2.16,5.18-3,1.27-1.25,2.42-4,1.15-5.58-1.61-2.05-4.26-.46-5.53.34-8.64,5.13-9.91,14-12.9,19.14-2.42,4.1-6.22,7.18-9.68,7.4a16.41,16.41,0,0,1-8.18-1.6,42.54,42.54,0,0,1-11.4-7.4c-1.84-1.37-15.9-15.15-27.42-15.72,0,0-1.38-2.85-1.73-2.85-.81-.11-1.73,1.71-2.3,1.94S391.44,340.47,390.87,340.58Zm-50.34,82a2,2,0,0,1-2-1.94V385.24H326.7v39.08a3.55,3.55,0,0,0,3.46,3.53h20.51a3.47,3.47,0,0,0,3.46-3.53V385.24H342.48v35.43a2,2,0,0,1-2,1.94Zm39.4-37.37H362.07a3.81,3.81,0,0,0-3.8,3.76v38.74H370V392.31a1.93,1.93,0,0,1,2-1.94,1.87,1.87,0,0,1,2,1.94v35.55h11.75V392.19a2,2,0,0,1,3.92,0v35.55h11.75V389a3.74,3.74,0,0,0-3.8-3.76H379.92ZM318.87,417H307v10.71H295.25v-42.5H319a3.84,3.84,0,0,1,3.8,3.87v24.15a3.77,3.77,0,0,1-3.92,3.76ZM311,392.31a2,2,0,0,0-2-2.05h-2v21.53h2a2,2,0,0,0,2-2.05V392.3ZM420.2,428V417.3h-4V428H404.36V389.37a3.74,3.74,0,0,1,3.82-3.75h19.89a3.81,3.81,0,0,1,3.82,3.75V428Zm0-15.89V392.67a2,2,0,0,0-3.93,0v19.52l3.93-.11Z" transform="translate(-295.25 -340.03)" style="fill:#292929"/></svg>