<?xml version="1.0" encoding="UTF-8"?><svg id="Layer_1" xmlns="http://www.w3.org/2000/svg" xmlns:xlink="http://www.w3.org/1999/xlink" viewBox="0 0 428.3 293.62"><defs><style>.cls-1,.cls-2,.cls-3{fill-rule:evenodd;}.cls-1,.cls-4{fill:#263d87;}.cls-2{fill:#fff;}.cls-3{fill:#0061a6;}.cls-5{fill:url(#linear-gradient);}.cls-6{fill:#b5c655;}.cls-7{clip-rule:evenodd;fill:none;}.cls-8{clip-path:url(#clippath);}</style><clipPath id="clippath"><path class="cls-7" d="M34.23,47.72v-.02c.47-.57.93-1.14,1.39-1.7h.02v-.02c.51-.63,1.03-1.24,1.55-1.86h.01c.31-.38.61-.74.92-1.1h.01v-.02c.36-.41.72-.83,1.08-1.24h.01v-.02c.41-.47.83-.93,1.25-1.39h0c.62-.69,1.24-1.37,1.87-2.03h0s.14-.16.14-.16h.01v-.02l.13-.14h.02v-.03c1.89-1.99,3.81-3.91,5.76-5.76h.02v-.02l.14-.14h.01s.15-.16.15-.16h0c1.13-1.07,2.28-2.11,3.43-3.13h0c.36-.32.71-.63,1.07-.94h.02v-.02c.98-.85,1.97-1.67,2.96-2.48h.01c.25-.22.51-.42.76-.63h.02c2.11-1.71,4.24-3.32,6.39-4.85h.02c.52-.38,1.03-.74,1.55-1.1h.01c.93-.65,1.86-1.27,2.79-1.88h.02s.46-.31.46-.31h0c.83-.54,1.66-1.06,2.49-1.56h.01s.76-.47.76-.47h.02c.26-.16.51-.32.77-.47h.02c1.19-.71,2.38-1.38,3.57-2.03h.02c1.08-.6,2.16-1.17,3.25-1.72h.03v-.02l.28-.14h.03v-.02l.28-.14h.03s.29-.16.29-.16h.02s.29-.16.29-.16h.02s.3-.16.3-.16h.01c.88-.44,1.77-.85,2.65-1.25h0c.35-.16.7-.32,1.05-.47h.04v-.02l.31-.14h0c1.13-.49,2.26-.96,3.4-1.41h.04v-.02c.25-.1.5-.2.76-.3h.03c.99-.39,1.97-.75,2.96-1.1h0s.45-.16.45-.16h.02s.43-.16.43-.16h.04c1.14-.4,2.28-.76,3.42-1.1h.02c.93-.28,1.86-.54,2.78-.78h.03s.57-.16.57-.16h.06v-.02l.57-.14h.05s.59-.16.59-.16h.04c.93-.23,1.86-.44,2.78-.63h.03c.26-.06.51-.11.77-.16h.01c.88-.17,1.76-.33,2.64-.47h.02c.33-.06.66-.11.99-.16h.1c1.26-.2,2.51-.35,3.75-.47h.16c1.7-.17,3.39-.27,5.06-.31h3.2c1.01.02,2,.07,3,.14v.02h.23c1.02.08,2.04.18,3.05.3h0s.11.01.11.01c.38.05.76.1,1.14.15h0s.02,0,.02,0c1.9.27,3.77.64,5.6,1.09h0s.01,0,.01,0l.61.16h0s0,0,0,0c.37.1.73.19,1.09.3v.02h.06c.98.28,1.95.58,2.91.91v.03h.08l.39.14v.02h.06l.41.15h0s.02,0,.02,0c.41.15.82.31,1.23.47h0s0,0,0,0c.37.14.73.29,1.09.44v.02h.06c.24.1.48.21.72.31h0s0,0,0,0c1.49.66,2.95,1.38,4.37,2.18h0s.01,0,.01,0c.26.14.51.29.77.44v.03h.05l.26.16h0s0,0,0,0l.47.28v.03h.05c.24.15.49.3.73.45v.02h.03c.46.29.92.6,1.38.91v.03h.04l.43.29v.02h.03l.44.31h0s0,0,0,0c.21.15.42.3.62.45v.02h.02l.41.3c.33.25.65.51.98.77v.02h.03c.25.2.5.4.75.61v.02h.02c.85.71,1.68,1.43,2.48,2.19h0s0,0,0,0c.05.05.1.1.15.15h0s0,0,0,0l.15.14h0s.01.01.01.01l.14.14v.02h.02l.14.14v.02h.02c.36.36.72.72,1.08,1.08h0s.01.01.01.01l.14.15h0s0,0,0,0c.53.56,1.05,1.13,1.56,1.71h0s0,.01,0,.01c.53.61,1.05,1.23,1.55,1.86v.02h.01c.16.2.3.4.46.6v.03h.02c.58.76,1.15,1.54,1.7,2.33h0s0,.01,0,.01c.1.15.2.31.3.46h0s0,0,0,0l.31.47h0s0,0,0,0c.26.41.52.82.78,1.23v.02h.01c.15.25.31.49.46.74v.04h.02c.15.26.3.52.45.78h0s0,0,0,0c.27.47.53.93.78,1.41l.16.3v.02h0l.15.28v.03h.02l.14.27v.05h.02l.13.25v.06h.03l.13.26v.05h.02l.13.27v.04h.02c.37.76.73,1.54,1.07,2.32v.02h.01c.16.36.31.72.46,1.09h0s0,0,0,0c.21.52.42,1.04.62,1.56h0c.22.57.42,1.14.63,1.71h0s0,.01,0,.01l.15.45v.02h0c.16.47.31.93.46,1.41h0s0,0,0,0c.11.34.21.67.31,1.01v.08h.03l.13.44v.03h0c.48,1.67.89,3.32,1.24,5h0s0,0,0,0c.11.52.21,1.04.31,1.56.05.27.11.55.16.82v.12h.02c.17.96.31,1.93.45,2.91v.06h0c.05.37.1.74.15,1.11v.15h.02c.12.97.21,1.95.3,2.94v.19h.02c.05.67.1,1.35.14,2.02h0s0,.01,0,.01c.19,3.37.2,6.82,0,10.33h0v.11c-.04.74-.09,1.49-.15,2.24h0v.09c-.05.59-.1,1.19-.16,1.78h0c-.05.47-.09.94-.14,1.41h-.02v.13c-.05.43-.1.85-.15,1.28h0v.03c-.13,1.08-.28,2.17-.45,3.26h-.02v.1c-.14.9-.29,1.81-.46,2.72h0v.05c-.32,1.75-.68,3.5-1.08,5.27h-.01v.05c-.33,1.44-.69,2.88-1.08,4.33h0v.04c-.15.56-.31,1.12-.47,1.68h0c-.3,1.04-.61,2.08-.93,3.13h0s-.14.47-.14.47h-.01v.05l-.14.42h-.02v.05c-.35,1.08-.71,2.15-1.09,3.23h0c-.2.58-.41,1.15-.61,1.72h-.01v.03c-.3.82-.62,1.65-.94,2.47h0c-.1.26-.2.52-.3.78h0v.02l-.31.76h0v.02c-.55,1.35-1.12,2.7-1.71,4.05h0v.02c-.6,1.35-1.22,2.7-1.87,4.05h0s-.14.31-.14.31h-.01v.02l-.14.29h-.02v.04l-.14.28h-.02v.04c-.45.93-.92,1.85-1.4,2.78h0c-.4.79-.82,1.57-1.24,2.35h-.01v.03l-.15.29h0c-.45.84-.92,1.67-1.39,2.5h-.02v.03c-.2.36-.4.71-.61,1.07h-.01v.03c-.75,1.3-1.53,2.6-2.33,3.89h0v.02c-.26.41-.52.82-.78,1.24h0c-1.2,1.89-2.45,3.77-3.75,5.63h0c-.26.37-.52.73-.78,1.1h0c-.26.37-.52.73-.78,1.1h0c-.15.21-.31.42-.46.63h-.01v.02c-.4.54-.79,1.08-1.2,1.62-.22.29-.44.58-.66.87h-.02v.02l-.46.6h0s-.6.78-.6.78h-.02v.03c-.2.25-.4.5-.6.75h-.03v.04l-.47.59h0c-.46.58-.93,1.15-1.4,1.72h0c-.26.32-.52.63-.77.94h0s-.12.16-.12.16h-.03v.04c-.25.3-.51.6-.76.9h-.02v.02c-.31.36-.62.72-.93,1.07h0c-.36.43-.73.84-1.09,1.25h0c-.52.58-1.03,1.15-1.56,1.72h0s-.14.16-.14.16h-.02v.02l-.13.14h-.03v.03c-.72.78-1.45,1.55-2.19,2.31h0s-.15.16-.15.16h0s-.15.16-.15.16h-.01s-.14.16-.14.16h-.02v.02l-.14.14h-.02v.02l-.13.14h-.02v.02l-.13.13h-.02v.02l-.13.13h-.03v.03l-.13.13h-.03v.03l-.13.13h-.03v.03l-.12.13h-.03v.03l-.12.12h-.03v.03l-.12.12h-.03v.03l-.13.12h-.03v.03l-.13.13h-.03v.03l-.13.13h-.03v.03l-.13.13h-.03v.03l-.13.13h-.03v.03l-.13.13h-.02v.02l-.14.14h-.02v.02l-.14.14h-.01s-.15.16-.15.16h0s-.15.16-.15.16h0s-.16.16-.16.16h0c-.71.69-1.43,1.37-2.15,2.03h-.04v.04l-.13.12h-.03v.03l-.14.13h-.01s-.16.16-.16.16c-.93.85-1.86,1.69-2.8,2.5h-.02v.02c-.36.31-.71.62-1.07.92h-.02v.02c-.36.31-.72.61-1.09.92h0c-.31.27-.62.53-.94.78-.26.21-.51.42-.77.63h-.01s-.77.63-.77.63h-.01c-.26.22-.52.42-.78.63h0s-.6.47-.6.47h-.03v.02c-.67.52-1.35,1.04-2.03,1.54h0c-.35.26-.7.52-1.06.78h-.04v.03l-.61.44h-.02c-.36.27-.72.53-1.08.78h-.02c-.52.38-1.04.74-1.56,1.09h0l-.46.31h-.01s-.45.31-.45.31h-.02s-.45.31-.45.31h-.01s-.46.31-.46.31h-.01s-.47.31-.47.31h0c-.98.64-1.97,1.27-2.96,1.88h0s-.77.47-.77.47h-.02s-.77.47-.77.47h0c-.62.38-1.25.74-1.87,1.1h0c-.47.27-.93.53-1.4.78h0s-.27.16-.27.16h-.04v.02c-.57.31-1.14.62-1.71.92h0s-.29.16-.29.16h-.02c-.82.44-1.63.85-2.45,1.25h-.05v.03l-.26.13h-.05v.02l-.28.13h-.04v.02l-.29.14h-.02s-.3.16-.3.16h0c-.67.32-1.34.64-2.02.94h-.01c-.35.16-.69.32-1.04.47h-.05v.02l-.3.13h0s-.72.31-.72.31h-.06v.03l-.31.13h0s-.75.31-.75.31h-.03c-.51.22-1.01.43-1.52.63h-.04v.02l-.77.3h-.02s-.39.16-.39.16h-.07v.03c-.25.1-.51.19-.76.28h-.02s-.41.16-.41.16h-.06v.02c-.57.21-1.14.41-1.72.6h0s-.46.16-.46.16h-.01s-.46.16-.46.16h-.01c-.65.22-1.3.43-1.95.63h-.08v.02l-.44.13h-.03c-.72.22-1.43.43-2.15.63h-.04s-.54.16-.54.16h-.09v.02c-.86.23-1.72.45-2.58.65,20.86-6.08,42.09-20.77,58.45-42.48,31.79-42.21,33.14-94.87,3.03-117.62-26.57-20.07-68.75-10.15-100.14,21.41-1.91.15-3.78.27-5.3.38.3-.38.6-.76.9-1.14h.01s-.01,0-.01,0Z"/></clipPath><linearGradient id="linear-gradient" x1="38.63" y1="93.55" x2="197.77" y2="93.63" gradientUnits="userSpaceOnUse"><stop offset="0" stop-color="#b5c455"/><stop offset=".28" stop-color="#b5c455"/><stop offset=".32" stop-color="#cfcc44"/><stop offset=".38" stop-color="#f6d01b"/><stop offset=".46" stop-color="#f9c814"/><stop offset=".55" stop-color="#f9c814"/><stop offset=".65" stop-color="#f5b13f"/><stop offset=".69" stop-color="#e9207d"/><stop offset=".77" stop-color="#e7655a"/><stop offset=".85" stop-color="#e49b3e"/><stop offset=".92" stop-color="#e2c226"/><stop offset=".97" stop-color="#e0da20"/><stop offset="1" stop-color="#e1e320"/></linearGradient></defs><path class="cls-1" d="M194.26,293.27c4.28-42.88,5.52-86.11-.34-128.65h39.85c-4.05,43.69-4.39,86,0,129l-39.51-.35ZM245.26,293.62c4.73-43.11,6.08-86.23,0-129.34h56.4c63.28-.72,38.62,88.32-20.26,69.51,0,19.94,1.69,39.89,3.04,59.83h-39.17ZM343.87,293.62c3.38-42.31,5.4-86,0-129h39.85c-5.07,37-5.4,76.43-1.69,111.01,15.42,4.5,31.18-.69,46.27-2.07l-1.35,20.06c-23.64-1.15-46.6-1.61-69.91-1.38l-13.17,1.38ZM281.39,227.56v-47.72c31-6.72,25.97,51.34,0,47.72Z"/><path class="cls-2" d="M156.07,225.77c3.62-5.27,19.35-4.53,25.05,1.33-1.2-.41-2.37-.95-3.6-1.21-4.07-.86-8.15-2.11-12.26-2.23-3.04-.09-6.13,1.35-9.2,2.11"/><path class="cls-4" d="M106.43,34.17c.76-.02,1.49.03,2.28.2.1.03.23.03.3.04.29.13.32.54.76.52.47-.33,1.28-.3,2.08-.27.58.29.81.95,1.26,1.38.29-1.15,1.96-1.46,2.91-.84.64.43.3,1.14.97,1.4-.15-.97.45-1.17,1.03-1.38.53.08.63.24.87.48.04.05.27.63.27.63.26.89.48,1.79.8,2.67.22.63.3,1.39.51,1.76h-.01s0,.69,0,.69c-.46.24-1.04.34-1.67.42.18.52.59.79.69,1.39-1.12.87-2.64-.46-3.75,0,.04.98.9,1.14,1.12,1.95-.73,1.33-2.25.18-3.47.14-.57-.03-1.02.38-1.54.27-.52-.11-.98-1.05-1.39-.55-.12.52,1.52.8,1.25,1.52,2.12-.12,3.55,1.78,5.55,1.95.51.03,1.15-.23,1.67-.14,1.55.26,3,2.9,3.16,6.94,0-.92.73-6.29.73-7.22.95-.38,1.6-1.09,2.51-1.53.13-1.67.24-3.38.4-4.99-1.55-.27-3.2-.48-4.75-.76-.41-1.36-1.09-5.03-2.65-5.74.02,0,.03-.02.06-.02-1.28-.72-3.38-.76-4.78-.84-.98-.05-1.97-.06-2.93-.03-.45.01-1.36.22-1.78.06-.96-.37-1.55-.58-2.58-.45-.32.17-.42.29-.45.36-.21.23-.49.51-.11.62.07-.35.37-.45.69-.61M91.31,37.41c-.23-1.48.81-1.65,1.65-2.06.29-.02.58-.04.9-.06.71.1,1.07.94,1.48,1.3.07-.69.45-1.07.78-1.48.54-.05,1.1-.12,1.66-.18.85.14.78,1.19,1.45,1.52-.11-1.74,2.41-2.15,3.47-1.12-.01-.49-.2-.8-.28-1.25l-12.05,1.25c-.68-.02-1.3,0-1.55.15,1.5-.02,1.72,1.25,2.5,1.94ZM67.87,99.27s-.02.09-.05.14c-.42,1.23-.82,2.45-1.24,3.68-.12.36-.18.62-.25.78,2.64-.22,5.25-.59,7.79-1.21.48-.11.94-.26,1.42-.4.63-.26,1.38-.6,1.89-.79-.04-.4-.05-.81-.08-.95-.14-1.33-.38-2.64-.69-3.95-.17.06-.37.12-.54.17-1.47.48-2.95.91-4.45,1.24-1.19.32-2.39.59-3.54.69-.1.2-.17.39-.28.59ZM129.08,144.11c-.12-.54-.26-1.06-.29-1.67-3.23-4.68-6.03-9.58-9.04-14.31-1-1.59-1.95-3.43-3.03-4.86-1.02-1.31-2.6-2.46-3.9-3.76-3.89-3.91-8.02-7.4-12.08-10.97,3.05-6,5.89-12.49,9.16-18.2,1.11-1.91,2.57-3.93,3.33-5.84.59-1.47.83-3.34,1.26-4.99,1.28-5.13,2.36-9.9,3.74-15.01.81-.64,1.57-1.31,1.52-2.78-1.15-.14-1.7-.89-2.49-1.39-2.15,1.01-6.41.59-6.8-1.38-.51-2.68,3.29-2.9,3.61-4.72-.98.02-2.74.88-3.19.14.9-.67,2.06-1.1,2.91-1.82-1.7-1.45-4.16-2.13-6.24-3.19-.29-2.19-1.34-3.56-1.26-6.11.26-.71.66-1.08.87-2.04.13-.39.13-.57-.13-1.2-.65-.02-1.2.11-1.57-.09-.73-.71.02-2.12-.56-3.06-.3.99-.39,2.21-.97,2.92-.04-.75-.28-1.29-.56-1.81.15,2.08.81,3.65,1.26,5.42-1.55-.25-2.12.46-3.46.42,0,.43-.15.71-.44.83-3.12,1.08-6.91,1.48-9.72,2.91-1.25-1.31-1.58-3.59-2.75-5,.53,2.11,1.72,3.76,2.35,6.12,4.11-1.13,7.39-3.07,11.79-3.9.42-.47,1.44-.76,2.23-.42.09.76.65,1.68.26,2.5-1.59-.23-.64-.03-1.65.29-.34-.19-.41.28-1.02.36-.7.23-1.06.23-1.7.65-.69.3-.57.36-1.25.46-.6.28.11,0-.6.28-.66.12-.73.19-1.39.41-1,.29-.63.19-1.49.43-1.3.36-.51.14-1.88.5-1.98.42-.2-.05-2.07.51-.86-1.17-1.7-2.36-2.77-3.34-.44.39-.58-.68-.7-1.65-1.15-.39-1.5-1.56-1.53-3.07-.38-.07-.96.87-1.66.97-1.08-.44-1.86-1.88-3.33-2.08-1.2-.18-3.07.46-4.58.69-1.16.18-2.3.21-3.23.48-7.3.69-32.42,4.77-37.03,5.5,4.83-.43,32.05-3.7,38.07-5.05,2.67-.21,5.43-.98,7.88-.92.24.35.47.73.39,1.39-3.76,1.27-7.7,1.64-11.64,2.23-2.28.34-9.48,1.82-10.83,2.08-5.83,1.16-12.44,2.37-18.87,3.47-1.88.32-3.83.63-5.69.97-11.12,2.03-22.91,2.89-34.55,1.53-.93-.14-1.3.06-1.48.23.12-.49.5-.98.88-1.2,1.43-.68,3.17-1.34,4.88-1.68h.83c.33-.29-.52-.12-.83-.14-1.44-.05-3.82.03-4.86,0-.28.38-.78.91-.88,1.53-.04.07-.36,1.59-.36,1.67v.14c.48,2.3.81,4.72,2.07,6.26,4.05.05,7.74,1.19,11.53,1.24,3.08.05,6.17-.42,9.17-.56,2.47-.11,4.95-.07,7.49-.27,4.41-.36,8.91-1.5,13.32-2.22,13.59-2.23,26.99-4.67,39.69-7.37,1.23-1.28,2.13-3.15,4.85-2.22,1.01,2.15,1.82,4.49,2.65,6.81,2.04.62,3.55,2.23,6.11,1.25-1.15-5.26,3.73-5.72,6.93-7.36-.17.52.12.72.14,1.11,2.85.05,2.48,3.35,3.74,5-2.76-1-5.57.12-7.34,1.11-.68.37-2.07,1.11-2.22,1.68-.31,1.08.45,3.37.68,5,.25,1.76.8,3.71.71,5.14-.13,1.72-1.21,3.57-1.68,5-.61,1.87-1.06,3.45-1.52,5.28-3.74,3.39-6.9,7.35-10.97,10.43-.17-.58-.24-1.25-.38-1.87-.46.43-1,.8-1.6,1.12-.04.02-.07.03-.09.05-.12.07-.24.12-.36.19.13.31.22.65.29.99.3.67.54,1.35.73,2.06.09-.06.18-.11.25-.17.29-.26.58-.52.87-.79.21-.33.41-.66.71-.89.31.8-.03,1.26-.51,1.67-.32.38-.68.74-1.1,1.07.44,1.95.6,3.98.56,5.89-5.33,3.96-12.81,5.35-19.32,5.73-1.91.11-3.77-1.49-5.28-2.53-1.27-.89-2.53-1.82-3.78-2.77-.01,0-.04-.03-.06-.06-1.66-1.19-3.17-2.67-3.51-4.84,0-.03-.01-.05-.02-.08,0,.02.01.02.02,0-.1-.69-.09-1.44.08-2.27.11.59.16,1.23.21,1.87.12.31.3.63.39,1.04.52,1.72,2.02,2.62,3.36,3.63,2.02,1.52,4.05,3.05,6.21,4.35.83.48,1.42.85,2.33.8v-.02s.01,0,.01.01c.58-1.71,1.17-3.51,1.77-5.23-.37.03-.73.1-1.09.11-2.46.13-5.04,1.2-7.01-.47-.61-.29-1.03-.74-1.18-1.37.93.06,1.39.59,1.91,1.06.3.1.6.18.83.24.21.06.46.08.67.1,1.42,0,2.73-.1,4.04-.21.06-.03.11-.03.17-.03.68-.12,1.32-.22,1.95-.3.37-1.12.75-2.26,1.14-3.39.05-.13.07-.23.12-.33-.88.2-1.76.39-2.62.58-2.59.69-5.19,1.35-7.81,1.96-.53.11-.99.1-1.44.02,0,.01-.05.02-.07.02-.02-.01-.04-.03-.04-.04-.61-.15-1.13-.5-1.58-1.19-.05-.09-.15-.39-.26-.76-.56-.9-.84-2.01-.48-3.43-.1,2.21,1.41,4.33,2.87,4.67.61,0,1.31-.25,1.81-.35.37-.08.75-.18,1.11-.27.02,0,.04-.01.04-.01,0,0,.02,0,.04,0,2.68-.65,5.32-1.34,7.97-2.08,3.65-1.02,7.3-2.1,10.86-3.42.4-.15.8-.32,1.22-.48.29-.12.39-.16.52-.2.56-.23,1.11-.49,1.65-.75.02-.03.04-.03.05-.04.4-.21.71-.38,1.07-.56.26-.17.54-.32.79-.51.12-.1.21-.17.29-.21.04-.87,0-.67-.28-1.39-.49.13-1.24.59-1.73.68-1.56.35-1.16.3-2.46.48-.34-1.39-1.16-2.34-1.51-3.73,1.89-1.13,4.36-1.66,4.44-4.59-2.49-.81-3.78-1.89-6.07-2.89-.39-.52-1.41-2.16-1.95-3.24-.94-1.51-.66-.83-1.97-2.48-1.01-1.3-2.3-2.59-3.37-3.12-.98-.48-2.56-.99-3.86-1.33-1.28-.34-2.56-.96-3.87-.97-.9-.02-2.05.36-3.06.56-2.89.58-3.74.98-5.56,2.36-.8.62-1.87,1.31-2.36,1.94-.21.28-.79.95-.98,1.25-.4.69-.77.95-1.1,1.57-.6,1.13-.59,1.26-.98,2.04-.95,1.92-1.81,3.92-2.19,6.31.05,6.76,3.94,9.44,5.24,14.94.09-.74-.42-1.62,0-2.22.45.7.29,2.04.42,3.06,1.03,1.18,2.82,1.63,3.34,3.32-1.32-.23-2.37-2.23-3.4-2.3,1.64,1.39,3.13,2.93,4.92,3.83.26.13.66,0,.96.14,1.52.69,2.65,2.51,4.01,2.92.63.19.79-.09,1.26.59-3.14.54-4.06-3.68-5.94-2.81-1.41.64-1.73.43-3.37.69-.26,1.31,1.4,3.22,1.63,4.46,1.08,1.56.04,2.32.97,4.02.98.88,1.56,1.1,2.4,1.66.48,3.29.16,6.78,1.25,10.01,1.22,2.39,4.03,3.99,5.98,6.1,2.11,2.32,5,4.78,6.64,6.4,5.72,5.56,11.2,10.2,17.1,15.55,1.49,1.35,5.06,3.9,5.81,5.56.66,1.43.92,3.37,1.38,5.13.48,1.74,1.24,3.62,1.4,5.14.32,2.76-.7,5.38,0,8.34.12.47.42.99.78,1.52,11.35-7.33,22.08-16.87,31.35-28.41.68-.86,1.33-1.7,1.98-2.57-.77-.74-1.64-1.34-2.87-1.52ZM82.09,89.9c-.14-.08-.32-.09-.5-.02-.05.01-.09.04-.13.05-.06.05-.1.06-.14.06-1.08.42-2.17.76-3.09,1.09-.52.18-1.08.35-1.61.52-.11.05-.19.08-.31.12.02.31.06.59.09.88.26.96.53,1.9.77,2.86,1.63-.57,3.25-1.19,4.84-1.91.39-.19.76-.4,1.13-.62-.13-.45-.24-.91-.38-1.36-.19-.56-.41-1.12-.68-1.67ZM76.48,95.7c-.24-1.13-.5-2.61-1.07-3.6-.03-.02-.03-.06-.05-.08-1.12.36-2.24.74-3.37,1.07-.73.25-1.47.5-2.25.71-.4,1.19-.82,2.38-1.21,3.57-.05.13-.06.24-.08.35.63-.09,1.24-.18,1.92-.32,1.76-.37,3.49-.83,5.2-1.38.32-.09.61-.22.92-.33ZM77.45,96.51c.34,1.5.63,3.03.8,4.59,1.64-.43,3.18-1.24,4.59-1.82.03-.02.07-.05.1-.06.39-.26.67-.48.9-.57,0-1.57-.15-3.13-.47-4.66-.13,0-.26.03-.38.05-1.74,1.04-3.86,1.76-5.56,2.31,0,.05.01.1.01.16Z"/><path class="cls-4" d="M185.57,204.97c-.06-.76-.5-1.86-.8-2.33-.73-1.07-1.78-1.94-3.04-2.26-3-.8-6.03,1.17-8.31,3.08-.46-1.08-.91-2.2-1.21-3.37l-2.21-4.71c-.84-2.04-2.48-3.27-2.91-5.7-4.48-6.59-6.59-15.54-13.34-19.87-1.38-1.71-2.82-3.37-4.55-4.73-1.82-3.11-5.45-4.28-6.54-7.92-.24-.81,0-1.94-.41-2.77-.28-.55-1.04-.74-1.82-1.4-.6-.52-1.13-1.29-1.64-1.66-.48-.34-1.01-.66-1.53-.97-11.4,12.17-24.14,21.71-37.15,28.26.12.16.24.33.36.49,1.16,1.73,2.74,3.24,3,5.42.11.96.58,1.81.69,2.73.08.77.4,1.37.7,2.05.35.83.27,1.69.34,2.56.05.72.37,1.32.54,2,.08.32-.1.65,0,.95.06.21.3.28.39.47.21.49.1,1.27.24,1.82.19.98.52,1.98.44,3-.14,2.11.32,4.3.49,6.39.28,3.16.37,6.33.28,9.49-.07,1.64-.18,3.28-.33,4.9-.09.83-.19,1.65-.3,2.47-.08.51-.04,2.06-.37,2.43-1.76,1.94-2.39,4.49-4.03,6.39-1.22,1.42-3.08,2.54-4.58,3.74-.89.73-1.79,1.48-2.69,2.21-.68.57-1.59,1.03-2.09,1.8-.37.54-.59,1.25-.89,1.86-.68,1.46-1.44,2.9-2.18,4.36-.53,1-.89,2.07-1.38,3.09-.45.89-1.07,1.63-1.62,2.45-.65.98-.85,2.14-1.73,3.02-.64.66-1.32,1.44-1.75,2.03-1.29,1.66-1.85,2.31-3.03,4.04-1.17,1.76-2.24,3.83-3.61,5.29-1.21,1.29-2.91,2.33-4.3,3.47-1.45,1.19-2.8,2-4.28,3.52-.93,1.89-.72,4.07-1.13,6.07-.18.84-.69,1.47-.69,2.37,0,.98.48,2.1.69,3.17.39,2.03-.09,4.85,1.61,6.34,1.99,1.74,5.25,2.59,7.75,2.59,4.18-.39,7.33-.69,11.61-1.01,1.1-.5.83-2.68.79-3.04-.05-.66-.41-1.02.03-1.68,5.63-6.95,10.22-14.95,17.21-20.55.97,1.38,2.17,2.66,3.32,4.16,1.04,1.31,2.05,3.32,3.34,4.16,1.51,1.01,3.16,1.82,5.27,1.94,2.31-1.23,1.19-10.94,3.47-14.73,1.7-.32,2.97-1.1,4.59-1.52,10.33-10.41,21.94-21.02,33.02-31.12,1.61-1.46,3.27-3.32,4.86-4.3,2.94-1.81,6.44-2.44,9.44-4.03,4.88-5.75,12.85-14.95,11.96-16.94M85.46,288.76c-1.03,1.08-2.74,1.04-6.68.87-3.93-.19-3.68-.33-5.93-1.31-1.88-.79-2.49-.51-2.07-5.46.45-5.24,4.54-4.28,8.99-2.87,4.51,1.41,4.54,1.88,4.76,2.82.22.96,1.11,3.76,1.11,3.76,0,0,.51,1.47-.18,2.18ZM117.92,271.21c-.15,1.31.13,2.16-1.36,1.93-2.38-.37-2.44-2.23-3.41-3.66-1.13-1.64-1.73-2.79-1.73-2.79.55-1.4.87-.87,2.25-1.15,1.3-.29,2.76-.88,3.43-.88s.36-.47.79,2.19c.38,2.22.2,2.95.04,4.38ZM139.74,213.7c-3.41-1.19-7.57-2.99-12.47-1.93-.05.1-.14.13-.14.27.3-.36,3.73.02,2.77.14-2.69.16-5.7.29-7.78.96,3.95-3.81,12.62-2.97,17.22-.41.75.38.86.43,1.48.81.48,1.01-.12.48-1.08.16ZM184.73,205.13c-.62.56-.79.89-1.12,1.36-.49.45-.49.51-.97.99-.85.9-.6.9-1.7,1.76-.53.53-.83.72-1.76,1.51-1.05.97-1.75,1.34-3.07,2.4-1.25,1.02-2.2,1.91-3.61,3.07-.46.34-1.9,1.25-4.52,2.58-1.09.68-2.46,1.36-3.94,1.03,1.26-1.21,2.47-2.82,4.3-4.32,2.61-2.11,6.84-2.78,6.67-6.52-.1-1.87-.77-3.55-1.47-5.24.45-.28.95-.59,1.3-.85.8-.61,1.86-1.13,2.74-1.58,1.25-.64,2.55-.75,3.95-.46,1.39.28,2.2,1.61,2.85,2.81.29.54.5,1.08.36,1.47Z"/><path class="cls-6" d="M24.99,61.38c-6.06,9.66-10.79,19.62-14.2,29.53,4.05-9.87,9.49-19.68,16.49-28.95.16-.22.33-.43.5-.65-.94.03-1.87.05-2.79.07"/><g class="cls-8"><rect class="cls-5" x="33.33" width="141.77" height="187.17"/></g><polygon class="cls-3" points="216.97 150.61 216.97 120.26 204.51 120.26 204.51 107.64 246.91 107.64 246.91 120.26 234.82 120.26 234.82 150.61 216.97 150.61"/><polygon class="cls-3" points="301.57 150.61 301.57 120.26 289.11 120.26 289.11 107.64 331.51 107.64 331.51 120.26 319.42 120.26 319.42 150.61 301.57 150.61"/><polygon class="cls-3" points="242.86 150.66 258.89 107.69 277.14 107.69 294.18 150.66 276.98 150.66 268.12 124.68 259.29 150.66 242.86 150.66"/><polygon class="cls-3" points="327.42 150.65 343.45 107.69 361.5 107.69 378.68 150.51 378.68 150.65 361.54 150.65 352.88 124.68 343.85 150.65 327.42 150.65"/><path class="cls-3" d="M270.19,83.62c-25.84-5.78-44.5-21.84-44.5-40.66,0-2.36.3-4.66.86-6.91,12.59-3.35,45.63-8.34,51.67-4.41,3.97,2.29-3.76,33.16-8.03,51.98"/><path class="cls-3" d="M356.15,36.04c.57,2.25.86,4.57.86,6.92,0,18.86-18.74,34.94-44.66,40.7-4.27-18.83-11.99-49.73-8.03-52.02,6.04-3.93,39.21,1.05,51.83,4.4"/><path class="cls-3" d="M291.68,0c28.18.09,52.26,11.9,61.4,28.34-10.56-1.61-59.46-13.14-58.91-3.62v61.16c-.93.03-1.88.05-2.82.05-1,0-1.99-.02-2.98-.05V24.71c.54-9.5-48.12,1.98-58.75,3.62C238.76,11.9,262.84.09,291.02,0h.66Z"/></svg>